<?xml version="1.0" encoding="UTF-8"?>
<svg width="189px" height="578px" viewBox="0 0 189 578" version="1.1" xmlns="http://www.w3.org/2000/svg" xmlns:xlink="http://www.w3.org/1999/xlink">
    <!-- Generator: Sketch 55.2 (78181) - https://sketchapp.com -->
    <title>DigiPli</title>
    <desc>Created with Sketch.</desc>
    <g id="Page-1" stroke="none" stroke-width="1" fill="none" fill-rule="evenodd" opacity="0.1">
        <g id="Why-DigiPli" transform="translate(-1679.000000, -181.000000)" fill="#969696" fill-rule="nonzero">
            <path d="M1512.8,497.4 L1534.8,497.4 C1558,497.4 1577.4,483 1577.4,452.2 C1577.4,421.4 1558.2,406.8 1535,406.8 L1512.8,406.8 L1512.8,497.4 Z M1535.8,523 L1485.2,523 L1485.2,381.2 L1536,381.2 C1576.4,381.2 1606,407.4 1606,452.2 C1606,497 1576.2,523 1535.8,523 Z M1654.6,523 L1628,523 L1628,424.6 L1654.6,424.6 L1654.6,523 Z M1624.8,392.4 C1624.8,383.2 1632.2,375.8 1641.2,375.8 C1650.4,375.8 1657.6,383.2 1657.6,392.4 C1657.6,401.2 1650.4,408.6 1641.2,408.6 C1632.2,408.6 1624.8,401.2 1624.8,392.4 Z M1676,528.4 L1700,522 C1701.8,532.8 1710.4,540.6 1723,540.6 C1739.8,540.6 1749.2,532.2 1749.2,513.2 L1749.2,506 C1745.2,512.4 1736,518.6 1721.8,518.6 C1695.6,518.6 1676,498.4 1676,470.8 C1676,444.8 1694.8,422.8 1721.8,422.8 C1737.4,422.8 1746.4,429.6 1749.8,436.2 L1749.8,424.6 L1775.4,424.6 L1775.4,512.4 C1775.4,539.4 1760.8,564 1723.8,564 C1696.8,564 1678.8,547.2 1676,528.4 Z M1726.4,495.8 C1740,495.8 1749.6,486 1749.6,470.8 C1749.6,455.6 1739.2,446 1726.4,446 C1713.2,446 1702.8,455.6 1702.8,470.8 C1702.8,486.2 1712.6,495.8 1726.4,495.8 Z M1829,523 L1802.4,523 L1802.4,424.6 L1829,424.6 L1829,523 Z M1799.2,392.4 C1799.2,383.2 1806.6,375.8 1815.6,375.8 C1824.8,375.8 1832,383.2 1832,392.4 C1832,401.2 1824.8,408.6 1815.6,408.6 C1806.6,408.6 1799.2,401.2 1799.2,392.4 Z M1887.2,445.8 L1909,445.8 C1922.8,445.8 1931.2,437.8 1931.2,425.6 C1931.2,413 1922.8,405.2 1909,405.2 L1887.2,405.2 L1887.2,445.8 Z M1912.4,469.6 L1887,469.6 L1887,523 L1859.4,523 L1859.4,381.2 L1912.4,381.2 C1940.4,381.2 1959,399.8 1959,425.4 C1959,451.2 1940.4,469.6 1912.4,469.6 Z M2003.8,523 L1977.2,523 L1977.2,378.2 L2003.8,378.2 L2003.8,523 Z M2058.8,523 L2032.2,523 L2032.2,424.6 L2058.8,424.6 L2058.8,523 Z M2029,392.4 C2029,383.2 2036.4,375.8 2045.4,375.8 C2054.6,375.8 2061.8,383.2 2061.8,392.4 C2061.8,401.2 2054.6,408.6 2045.4,408.6 C2036.4,408.6 2029,401.2 2029,392.4 Z" id="DigiPli" transform="translate(1773.500000, 469.900000) rotate(90.000000) translate(-1773.500000, -469.900000) "></path>
        </g>
    </g>
</svg>