<?xml version="1.0" encoding="UTF-8"?>
<svg width="16px" height="16px" viewBox="0 0 16 16" version="1.1" xmlns="http://www.w3.org/2000/svg" xmlns:xlink="http://www.w3.org/1999/xlink">
    <!-- Generator: Sketch 55.2 (78181) - https://sketchapp.com -->
    <title>linkedin</title>
    <desc>Created with Sketch.</desc>
    <g id="Page-1" stroke="none" stroke-width="1" fill="none" fill-rule="evenodd">
        <g id="Insights-Detail-Page" transform="translate(-416.000000, -722.000000)" fill="#FFFFFF" fill-rule="nonzero">
            <g id="Group-18" transform="translate(255.000000, 716.000000)">
                <g id="Group-17" transform="translate(113.000000, 2.000000)">
                    <g id="Group-13" transform="translate(44.000000, 0.000000)">
                        <g id="linkedin" transform="translate(4.000000, 4.000000)">
                            <path d="M14.5526702,0 L1.44732984,0 C0.648,0 0,0.648 0,1.44732984 L0,14.5526283 C0,15.352 0.648,16 1.44732984,16 L14.5526283,16 C15.352,16 16,15.352 16,14.5526283 L16,1.44732984 C16,0.648 15.352,0 14.5526702,0 Z M4.95107853,13.8154555 C4.95107853,14.0480838 4.76251309,14.2366492 4.52988482,14.2366492 L2.73696335,14.2366492 C2.50433508,14.2366492 2.31576963,14.0480838 2.31576963,13.8154555 L2.31576963,6.29960209 C2.31576963,6.06697382 2.50433508,5.87840838 2.73696335,5.87840838 L4.52988482,5.87840838 C4.76251309,5.87840838 4.95107853,6.06697382 4.95107853,6.29960209 L4.95107853,13.8154555 Z M3.63342408,5.1699267 C2.69273298,5.1699267 1.93013613,4.40732984 1.93013613,3.46663874 C1.93013613,2.52594764 2.69273298,1.76335079 3.63342408,1.76335079 C4.57411518,1.76335079 5.33671204,2.52594764 5.33671204,3.46663874 C5.33671204,4.40732984 4.57415707,5.1699267 3.63342408,5.1699267 Z M14.3208388,13.8493822 C14.3208388,14.0632461 14.1474346,14.2366492 13.9335707,14.2366492 L12.0096335,14.2366492 C11.7957696,14.2366492 11.6223665,14.0632461 11.6223665,13.8493822 L11.6223665,10.3240209 C11.6223665,9.79811518 11.7766283,8.01947644 10.248,8.01947644 C9.06228272,8.01947644 8.8217801,9.23690052 8.77348691,9.78324607 L8.77348691,13.8493822 C8.77348691,14.0632461 8.60012565,14.2366492 8.3862199,14.2366492 L6.52544503,14.2366492 C6.31158115,14.2366492 6.13817801,14.0632461 6.13817801,13.8493822 L6.13817801,6.26567539 C6.13817801,6.05181152 6.31158115,5.87840838 6.52544503,5.87840838 L8.3862199,5.87840838 C8.60008377,5.87840838 8.77348691,6.05181152 8.77348691,6.26567539 L8.77348691,6.9213822 C9.21315183,6.26157068 9.86655497,5.75229319 11.2577592,5.75229319 C14.3384712,5.75229319 14.3208388,8.63045026 14.3208388,10.2118534 L14.3208388,13.8493822 L14.3208388,13.8493822 Z"></path>
                        </g>
                    </g>
                </g>
            </g>
        </g>
    </g>
</svg>