<?xml version="1.0" encoding="UTF-8"?>
<svg width="16px" height="16px" viewBox="0 0 16 16" version="1.1" xmlns="http://www.w3.org/2000/svg" xmlns:xlink="http://www.w3.org/1999/xlink">
    <!-- Generator: Sketch 55.2 (78181) - https://sketchapp.com -->
    <title>pinterest</title>
    <desc>Created with Sketch.</desc>
    <g id="Page-1" stroke="none" stroke-width="1" fill="none" fill-rule="evenodd">
        <g id="Insights-Detail-Page" transform="translate(-460.000000, -722.000000)" fill="#FFFFFF" fill-rule="nonzero">
            <g id="Group-18" transform="translate(255.000000, 716.000000)">
                <g id="Group-17" transform="translate(113.000000, 2.000000)">
                    <g id="Group-14" transform="translate(88.000000, 0.000000)">
                        <g id="pinterest" transform="translate(4.000000, 4.000000)">
                            <path d="M15.9748959,8.2233414 C16.1052978,3.66430993 12.4149927,-0.0652397094 7.87017918,0.000852300242 C3.49594189,0.064464891 -0.0332397094,3.67697821 0.000232445521,8.05156416 C0.024251816,11.1861695 1.8536368,13.8907506 4.49979661,15.177569 C4.65286199,15.2519903 4.83006295,15.1362712 4.8236707,14.9661598 C4.80437772,14.4521453 4.82099758,13.9026441 4.92385472,13.4609201 C5.02508475,13.0259758 5.4222954,11.344 5.68344794,10.2390702 C5.8105569,9.70115254 5.82589831,9.14258596 5.72354479,8.59939952 C5.68995642,8.42115254 5.66562712,8.21175787 5.66562712,7.97904116 C5.66562712,6.79825666 6.35002421,5.91666828 7.20220823,5.91666828 C7.92670218,5.91666828 8.27668765,6.46062954 8.27668765,7.11287167 C8.27668765,7.84147215 7.81276513,8.93078935 7.57334625,9.94033898 C7.37328814,10.7855884 7.99724939,11.4748668 8.83087651,11.4748668 C10.3402228,11.4748668 11.5003971,9.88338983 11.5003971,7.58613075 C11.5003971,5.55289104 10.0393995,4.13125424 7.95323971,4.13125424 C5.53700726,4.13125424 4.11874092,5.94359322 4.11874092,7.81656174 C4.11874092,8.54640194 4.39992252,9.32908475 4.75072155,9.75453753 C4.8200678,9.83860533 4.8302954,9.9123293 4.80964649,9.99810169 C4.7451816,10.2663438 4.60191768,10.8431574 4.57379177,10.9611622 C4.53671671,11.1166295 4.45071186,11.1495593 4.28982082,11.0747506 C3.22913317,10.5810363 2.56608232,9.03043099 2.56608232,7.78491041 C2.56608232,5.10609201 4.51238741,2.64604358 8.177046,2.64604358 C11.1229056,2.64604358 13.4122615,4.7451816 13.4122615,7.55060533 C13.4122615,10.4772881 11.5669153,12.8326586 9.00559806,12.8326586 C8.32875545,12.8326586 7.68375787,12.5560484 7.30456174,12.1809976 C7.18795157,12.0656659 6.99079903,12.1181985 6.94919128,12.2768426 C6.81565133,12.7856271 6.59978692,13.6086005 6.53024697,13.8762228 C6.40503632,14.3577337 6.14117191,14.9185472 5.87664891,15.406954 C5.80637288,15.5367361 5.87746247,15.697046 6.02053269,15.7333075 C6.67358838,15.8989249 7.35856659,15.9844262 8.0646586,15.9778789 C12.2567748,15.9389831 15.8550315,12.4139855 15.9748959,8.2233414 Z" id="Path"></path>
                        </g>
                    </g>
                </g>
            </g>
        </g>
    </g>
</svg>