<?xml version="1.0" encoding="UTF-8"?>
<svg width="228px" height="215px" viewBox="0 0 228 215" version="1.1" xmlns="http://www.w3.org/2000/svg" xmlns:xlink="http://www.w3.org/1999/xlink">
    <!-- Generator: Sketch 55.2 (78181) - https://sketchapp.com -->
    <title>Group 3</title>
    <desc>Created with Sketch.</desc>
    <g id="Page-1" stroke="none" stroke-width="1" fill="none" fill-rule="evenodd">
        <g id="Newer-Home-Page-Copy" transform="translate(-535.000000, -15.000000)" fill="#A9A9A9" fill-rule="nonzero">
            <g id="Group-3" transform="translate(649.000000, 123.000000) rotate(0.500000) translate(-649.000000, -123.000000) translate(534.000000, 16.000000)">
                <circle id="Oval" transform="translate(108.326436, 210.616852) rotate(89.500000) translate(-108.326436, -210.616852) " cx="108.326436" cy="210.616852" r="1.48163916"></circle>
                <circle id="Oval" transform="translate(93.372877, 210.750032) rotate(89.500000) translate(-93.372877, -210.750032) " cx="93.3728774" cy="210.750032" r="1.48163916"></circle>
                <circle id="Oval" transform="translate(78.424697, 210.869903) rotate(89.500000) translate(-78.424697, -210.869903) " cx="78.4246965" cy="210.869903" r="1.48163916"></circle>
                <circle id="Oval" transform="translate(63.503038, 210.989542) rotate(89.500000) translate(-63.503038, -210.989542) " cx="63.5030381" cy="210.989542" r="1.48163916"></circle>
                <circle id="Oval" transform="translate(48.568234, 211.122558) rotate(89.500000) translate(-48.568234, -211.122558) " cx="48.5682342" cy="211.122558" r="1.48163916"></circle>
                <circle id="Oval" transform="translate(33.633430, 211.255574) rotate(89.500000) translate(-33.633430, -211.255574) " cx="33.6334303" cy="211.255574" r="1.48163916"></circle>
                <circle id="Oval" transform="translate(18.685249, 211.375445) rotate(89.500000) translate(-18.685249, -211.375445) " cx="18.6852494" cy="211.375445" r="1.48163916"></circle>
                <circle id="Oval" transform="translate(3.776968, 211.508230) rotate(89.500000) translate(-3.776968, -211.508230) " cx="3.77696791" cy="211.50823" r="1.48163916"></circle>
                <circle id="Oval" transform="translate(108.174502, 195.663458) rotate(89.500000) translate(-108.174502, -195.663458) " cx="108.174502" cy="195.663458" r="1.48163916"></circle>
                <circle id="Oval" transform="translate(93.239698, 195.796474) rotate(89.500000) translate(-93.239698, -195.796474) " cx="93.2396976" cy="195.796474" r="1.48163916"></circle>
                <circle id="Oval" transform="translate(78.304826, 195.921722) rotate(89.500000) translate(-78.304826, -195.921722) " cx="78.3048259" cy="195.921722" r="1.48163916"></circle>
                <circle id="Oval" transform="translate(63.370022, 196.054738) rotate(89.500000) translate(-63.370022, -196.054738) " cx="63.370022" cy="196.054738" r="1.48163916"></circle>
                <circle id="Oval" transform="translate(48.448595, 196.200900) rotate(89.500000) translate(-48.448595, -196.200900) " cx="48.448595" cy="196.2009" r="1.48163916"></circle>
                <circle id="Oval" transform="translate(33.500414, 196.320770) rotate(89.500000) translate(-33.500414, -196.320770) " cx="33.5004141" cy="196.32077" r="1.48163916"></circle>
                <circle id="Oval" transform="translate(18.578756, 196.440410) rotate(89.500000) translate(-18.578756, -196.440410) " cx="18.5787557" cy="196.44041" r="1.48163916"></circle>
                <circle id="Oval" transform="translate(3.643952, 196.573426) rotate(89.500000) translate(-3.643952, -196.573426) " cx="3.64395175" cy="196.573426" r="1.48163916"></circle>
                <circle id="Oval" transform="translate(108.041485, 180.728654) rotate(89.500000) translate(-108.041485, -180.728654) " cx="108.041485" cy="180.728654" r="1.48163916"></circle>
                <circle id="Oval" transform="translate(93.106681, 180.861670) rotate(89.500000) translate(-93.106681, -180.861670) " cx="93.1066815" cy="180.86167" r="1.48163916"></circle>
                <circle id="Oval" transform="translate(78.185187, 181.000064) rotate(89.500000) translate(-78.185187, -181.000064) " cx="78.1851867" cy="181.000064" r="1.48163916"></circle>
                <circle id="Oval" transform="translate(63.250383, 181.133080) rotate(89.500000) translate(-63.250383, -181.133080) " cx="63.2503828" cy="181.13308" r="1.48163916"></circle>
                <circle id="Oval" transform="translate(48.302202, 181.252950) rotate(89.500000) translate(-48.302202, -181.252950) " cx="48.3022019" cy="181.25295" r="1.48163916"></circle>
                <circle id="Oval" transform="translate(33.367398, 181.385967) rotate(89.500000) translate(-33.367398, -181.385967) " cx="33.3673979" cy="181.385967" r="1.48163916"></circle>
                <circle id="Oval" transform="translate(18.459116, 181.518751) rotate(89.500000) translate(-18.459116, -181.518751) " cx="18.4591165" cy="181.518751" r="1.48163916"></circle>
                <circle id="Oval" transform="translate(3.510936, 181.638622) rotate(89.500000) translate(-3.510936, -181.638622) " cx="3.51093559" cy="181.638622" r="1.48163916"></circle>
                <circle id="Oval" transform="translate(107.908469, 165.793850) rotate(89.500000) translate(-107.908469, -165.793850) " cx="107.908469" cy="165.79385" r="1.48163916"></circle>
                <circle id="Oval" transform="translate(92.973665, 165.926866) rotate(89.500000) translate(-92.973665, -165.926866) " cx="92.9736653" cy="165.926866" r="1.48163916"></circle>
                <circle id="Oval" transform="translate(78.052007, 166.046505) rotate(89.500000) translate(-78.052007, -166.046505) " cx="78.0520069" cy="166.046505" r="1.48163916"></circle>
                <circle id="Oval" transform="translate(63.117367, 166.198276) rotate(89.500000) translate(-63.117367, -166.198276) " cx="63.1173666" cy="166.198276" r="1.48163916"></circle>
                <circle id="Oval" transform="translate(48.182563, 166.331292) rotate(89.500000) translate(-48.182563, -166.331292) " cx="48.1825627" cy="166.331292" r="1.48163916"></circle>
                <circle id="Oval" transform="translate(33.247759, 166.464308) rotate(89.500000) translate(-33.247759, -166.464308) " cx="33.2477588" cy="166.464308" r="1.48163916"></circle>
                <circle id="Oval" transform="translate(18.326100, 166.583947) rotate(89.500000) translate(-18.326100, -166.583947) " cx="18.3261003" cy="166.583947" r="1.48163916"></circle>
                <circle id="Oval" transform="translate(3.391296, 166.716963) rotate(89.500000) translate(-3.391296, -166.716963) " cx="3.3912964" cy="166.716963" r="1.48163916"></circle>
                <circle id="Oval" transform="translate(107.788830, 150.872192) rotate(89.500000) translate(-107.788830, -150.872192) " cx="107.78883" cy="150.872192" r="1.48163916"></circle>
                <circle id="Oval" transform="translate(92.867172, 150.991831) rotate(89.500000) translate(-92.867172, -150.991831) " cx="92.8671716" cy="150.991831" r="1.48163916"></circle>
                <circle id="Oval" transform="translate(77.918991, 151.111701) rotate(89.500000) translate(-77.918991, -151.111701) " cx="77.9189907" cy="151.111701" r="1.48163916"></circle>
                <circle id="Oval" transform="translate(62.984187, 151.244718) rotate(89.500000) translate(-62.984187, -151.244718) " cx="62.9841868" cy="151.244718" r="1.48163916"></circle>
                <circle id="Oval" transform="translate(48.049547, 151.396488) rotate(89.500000) translate(-48.049547, -151.396488) " cx="48.0495465" cy="151.396488" r="1.48163916"></circle>
                <circle id="Oval" transform="translate(33.114743, 151.529504) rotate(89.500000) translate(-33.114743, -151.529504) " cx="33.1147426" cy="151.529504" r="1.48163916"></circle>
                <circle id="Oval" transform="translate(18.179707, 151.635998) rotate(89.500000) translate(-18.179707, -151.635998) " cx="18.1797072" cy="151.635998" r="1.48163916"></circle>
                <circle id="Oval" transform="translate(3.258280, 151.782160) rotate(89.500000) translate(-3.258280, -151.782160) " cx="3.25828024" cy="151.78216" r="1.48163916"></circle>
                <circle id="Oval" transform="translate(107.655814, 135.937388) rotate(89.500000) translate(-107.655814, -135.937388) " cx="107.655814" cy="135.937388" r="1.48163916"></circle>
                <circle id="Oval" transform="translate(92.734155, 136.057027) rotate(89.500000) translate(-92.734155, -136.057027) " cx="92.7341554" cy="136.057027" r="1.48163916"></circle>
                <circle id="Oval" transform="translate(77.785975, 136.176898) rotate(89.500000) translate(-77.785975, -136.176898) " cx="77.7859746" cy="136.176898" r="1.48163916"></circle>
                <circle id="Oval" transform="translate(62.851171, 136.309914) rotate(89.500000) translate(-62.851171, -136.309914) " cx="62.8511706" cy="136.309914" r="1.48163916"></circle>
                <circle id="Oval" transform="translate(47.916367, 136.442930) rotate(89.500000) translate(-47.916367, -136.442930) " cx="47.9163667" cy="136.44293" r="1.48163916"></circle>
                <circle id="Oval" transform="translate(32.994872, 136.581323) rotate(89.500000) translate(-32.994872, -136.581323) " cx="32.9948719" cy="136.581323" r="1.48163916"></circle>
                <circle id="Oval" transform="translate(18.060068, 136.714339) rotate(89.500000) translate(-18.060068, -136.714339) " cx="18.060068" cy="136.714339" r="1.48163916"></circle>
                <circle id="Oval" transform="translate(3.125264, 136.847356) rotate(89.500000) translate(-3.125264, -136.847356) " cx="3.12526408" cy="136.847356" r="1.48163916"></circle>
                <circle id="Oval" transform="translate(107.522798, 121.002584) rotate(89.500000) translate(-107.522798, -121.002584) " cx="107.522798" cy="121.002584" r="1.48163916"></circle>
                <circle id="Oval" transform="translate(92.587762, 121.109077) rotate(89.500000) translate(-92.587762, -121.109077) " cx="92.5877623" cy="121.109077" r="1.48163916"></circle>
                <circle id="Oval" transform="translate(77.666335, 121.255239) rotate(89.500000) translate(-77.666335, -121.255239) " cx="77.6663354" cy="121.255239" r="1.48163916"></circle>
                <circle id="Oval" transform="translate(62.731531, 121.388255) rotate(89.500000) translate(-62.731531, -121.388255) " cx="62.7315314" cy="121.388255" r="1.48163916"></circle>
                <circle id="Oval" transform="translate(47.783351, 121.508126) rotate(89.500000) translate(-47.783351, -121.508126) " cx="47.7833505" cy="121.508126" r="1.48163916"></circle>
                <circle id="Oval" transform="translate(32.861692, 121.627765) rotate(89.500000) translate(-32.861692, -121.627765) " cx="32.8616921" cy="121.627765" r="1.48163916"></circle>
                <circle id="Oval" transform="translate(17.940429, 121.792681) rotate(89.500000) translate(-17.940429, -121.792681) " cx="17.9404288" cy="121.792681" r="1.48163916"></circle>
                <circle id="Oval" transform="translate(2.992248, 121.912552) rotate(89.500000) translate(-2.992248, -121.912552) " cx="2.99224793" cy="121.912552" r="1.48163916"></circle>
                <circle id="Oval" transform="translate(107.402927, 106.054403) rotate(89.500000) translate(-107.402927, -106.054403) " cx="107.402927" cy="106.054403" r="1.48163916"></circle>
                <circle id="Oval" transform="translate(92.468123, 106.187419) rotate(89.500000) translate(-92.468123, -106.187419) " cx="92.4681231" cy="106.187419" r="1.48163916"></circle>
                <circle id="Oval" transform="translate(77.533319, 106.320435) rotate(89.500000) translate(-77.533319, -106.320435) " cx="77.5333192" cy="106.320435" r="1.48163916"></circle>
                <circle id="Oval" transform="translate(62.598515, 106.453451) rotate(89.500000) translate(-62.598515, -106.453451) " cx="62.5985153" cy="106.453451" r="1.48163916"></circle>
                <circle id="Oval" transform="translate(47.663711, 106.586468) rotate(89.500000) translate(-47.663711, -106.586468) " cx="47.6637113" cy="106.586468" r="1.48163916"></circle>
                <circle id="Oval" transform="translate(32.742053, 106.706107) rotate(89.500000) translate(-32.742053, -106.706107) " cx="32.7420529" cy="106.706107" r="1.48163916"></circle>
                <circle id="Oval" transform="translate(17.793872, 106.825977) rotate(89.500000) translate(-17.793872, -106.825977) " cx="17.793872" cy="106.825977" r="1.48163916"></circle>
                <circle id="Oval" transform="translate(2.840478, 106.977911) rotate(89.500000) translate(-2.840478, -106.977911) " cx="2.84047756" cy="106.977911" r="1.48163916"></circle>
                <circle id="Oval" transform="translate(107.269911, 91.119599) rotate(89.500000) translate(-107.269911, -91.119599) " cx="107.269911" cy="91.119599" r="1.48163916"></circle>
                <circle id="Oval" transform="translate(92.335107, 91.252615) rotate(89.500000) translate(-92.335107, -91.252615) " cx="92.335107" cy="91.2526151" r="1.48163916"></circle>
                <circle id="Oval" transform="translate(77.400303, 91.385631) rotate(89.500000) translate(-77.400303, -91.385631) " cx="77.400303" cy="91.3856313" r="1.48163916"></circle>
                <circle id="Oval" transform="translate(62.465499, 91.518647) rotate(89.500000) translate(-62.465499, -91.518647) " cx="62.4654991" cy="91.5186474" r="1.48163916"></circle>
                <circle id="Oval" transform="translate(47.543841, 91.638287) rotate(89.500000) translate(-47.543841, -91.638287) " cx="47.5438407" cy="91.6382866" r="1.48163916"></circle>
                <circle id="Oval" transform="translate(32.609037, 91.771303) rotate(89.500000) translate(-32.609037, -91.771303) " cx="32.6090368" cy="91.7713028" r="1.48163916"></circle>
                <circle id="Oval" transform="translate(17.642102, 91.891337) rotate(89.500000) translate(-17.642102, -91.891337) " cx="17.6421017" cy="91.8913371" r="1.48163916"></circle>
                <circle id="Oval" transform="translate(2.720675, 92.037499) rotate(89.500000) translate(-2.720675, -92.037499) " cx="2.72067469" cy="92.0374988" r="1.48163916"></circle>
                <circle id="Oval" transform="translate(107.136895, 76.184795) rotate(89.500000) translate(-107.136895, -76.184795) " cx="107.136895" cy="76.184795" r="1.48163916"></circle>
                <circle id="Oval" transform="translate(92.215468, 76.330957) rotate(89.500000) translate(-92.215468, -76.330957) " cx="92.2154678" cy="76.3309567" r="1.48163916"></circle>
                <circle id="Oval" transform="translate(77.267287, 76.450827) rotate(89.500000) translate(-77.267287, -76.450827) " cx="77.2672869" cy="76.4508274" r="1.48163916"></circle>
                <circle id="Oval" transform="translate(62.332483, 76.583844) rotate(89.500000) translate(-62.332483, -76.583844) " cx="62.332483" cy="76.5838435" r="1.48163916"></circle>
                <circle id="Oval" transform="translate(47.410825, 76.703483) rotate(89.500000) translate(-47.410825, -76.703483) " cx="47.4108245" cy="76.7034827" r="1.48163916"></circle>
                <circle id="Oval" transform="translate(32.457266, 76.836663) rotate(89.500000) translate(-32.457266, -76.836663) " cx="32.4572664" cy="76.8366625" r="1.48163916"></circle>
                <circle id="Oval" transform="translate(17.522462, 76.969679) rotate(89.500000) translate(-17.522462, -76.969679) " cx="17.5224625" cy="76.9696787" r="1.48163916"></circle>
                <circle id="Oval" transform="translate(2.587659, 77.102695) rotate(89.500000) translate(-2.587659, -77.102695) " cx="2.58765854" cy="77.1026948" r="1.48163916"></circle>
                <circle id="Oval" transform="translate(107.003879, 61.249991) rotate(89.500000) translate(-107.003879, -61.249991) " cx="107.003879" cy="61.2499911" r="1.48163916"></circle>
                <circle id="Oval" transform="translate(92.069075, 61.383007) rotate(89.500000) translate(-92.069075, -61.383007) " cx="92.0690747" cy="61.3830073" r="1.48163916"></circle>
                <circle id="Oval" transform="translate(77.147648, 61.529169) rotate(89.500000) translate(-77.147648, -61.529169) " cx="77.1476477" cy="61.5291689" r="1.48163916"></circle>
                <circle id="Oval" transform="translate(62.199467, 61.649040) rotate(89.500000) translate(-62.199467, -61.649040) " cx="62.1994668" cy="61.6490396" r="1.48163916"></circle>
                <circle id="Oval" transform="translate(47.259054, 61.768842) rotate(89.500000) translate(-47.259054, -61.768842) " cx="47.2590542" cy="61.7688424" r="1.48163916"></circle>
                <circle id="Oval" transform="translate(32.337627, 61.915004) rotate(89.500000) translate(-32.337627, -61.915004) " cx="32.3376272" cy="61.9150041" r="1.48163916"></circle>
                <circle id="Oval" transform="translate(17.402823, 62.048020) rotate(89.500000) translate(-17.402823, -62.048020) " cx="17.4028233" cy="62.0480203" r="1.48163916"></circle>
                <circle id="Oval" transform="translate(2.454642, 62.167891) rotate(89.500000) translate(-2.454642, -62.167891) " cx="2.45464238" cy="62.1678909" r="1.48163916"></circle>
                <circle id="Oval" transform="translate(106.884239, 46.328333) rotate(89.500000) translate(-106.884239, -46.328333) " cx="106.884239" cy="46.3283327" r="1.48163916"></circle>
                <circle id="Oval" transform="translate(91.949435, 46.461349) rotate(89.500000) translate(-91.949435, -46.461349) " cx="91.9494355" cy="46.4613488" r="1.48163916"></circle>
                <circle id="Oval" transform="translate(77.001255, 46.581219) rotate(89.500000) translate(-77.001255, -46.581219) " cx="77.0012546" cy="46.5812195" r="1.48163916"></circle>
                <circle id="Oval" transform="translate(62.074219, 46.714168) rotate(89.500000) translate(-62.074219, -46.714168) " cx="62.0742189" cy="46.7141679" r="1.48163916"></circle>
                <circle id="Oval" transform="translate(47.139415, 46.847184) rotate(89.500000) translate(-47.139415, -46.847184) " cx="47.139415" cy="46.847184" r="1.48163916"></circle>
                <circle id="Oval" transform="translate(32.204611, 46.980200) rotate(89.500000) translate(-32.204611, -46.980200) " cx="32.204611" cy="46.9802002" r="1.48163916"></circle>
                <circle id="Oval" transform="translate(17.256430, 47.100071) rotate(89.500000) translate(-17.256430, -47.100071) " cx="17.2564302" cy="47.1000708" r="1.48163916"></circle>
                <circle id="Oval" transform="translate(2.321626, 47.233087) rotate(89.500000) translate(-2.321626, -47.233087) " cx="2.32162622" cy="47.233087" r="1.48163916"></circle>
                <circle id="Oval" transform="translate(106.751223, 31.393529) rotate(89.500000) translate(-106.751223, -31.393529) " cx="106.751223" cy="31.3935288" r="1.48163916"></circle>
                <circle id="Oval" transform="translate(91.816419, 31.526545) rotate(89.500000) translate(-91.816419, -31.526545) " cx="91.8164193" cy="31.5265449" r="1.48163916"></circle>
                <circle id="Oval" transform="translate(76.862861, 31.659725) rotate(89.500000) translate(-76.862861, -31.659725) " cx="76.8628612" cy="31.6597247" r="1.48163916"></circle>
                <circle id="Oval" transform="translate(61.941203, 31.779364) rotate(89.500000) translate(-61.941203, -31.779364) " cx="61.9412027" cy="31.7793639" r="1.48163916"></circle>
                <circle id="Oval" transform="translate(47.006399, 31.912380) rotate(89.500000) translate(-47.006399, -31.912380) " cx="47.0063988" cy="31.9123801" r="1.48163916"></circle>
                <circle id="Oval" transform="translate(32.071595, 32.045396) rotate(89.500000) translate(-32.071595, -32.045396) " cx="32.0715949" cy="32.0453962" r="1.48163916"></circle>
                <circle id="Oval" transform="translate(17.136559, 32.151890) rotate(89.500000) translate(-17.136559, -32.151890) " cx="17.1365595" cy="32.1518899" r="1.48163916"></circle>
                <circle id="Oval" transform="translate(2.215133, 32.298052) rotate(89.500000) translate(-2.215133, -32.298052) " cx="2.21513253" cy="32.2980516" r="1.48163916"></circle>
                <circle id="Oval" transform="translate(106.631420, 16.453116) rotate(89.500000) translate(-106.631420, -16.453116) " cx="106.63142" cy="16.4531161" r="1.48163916"></circle>
                <circle id="Oval" transform="translate(91.678026, 16.605050) rotate(89.500000) translate(-91.678026, -16.605050) " cx="91.6780259" cy="16.6050501" r="1.48163916"></circle>
                <circle id="Oval" transform="translate(76.742991, 16.711544) rotate(89.500000) translate(-76.742991, -16.711544) " cx="76.7429905" cy="16.7115438" r="1.48163916"></circle>
                <circle id="Oval" transform="translate(61.808187, 16.844560) rotate(89.500000) translate(-61.808187, -16.844560) " cx="61.8081866" cy="16.84456" r="1.48163916"></circle>
                <circle id="Oval" transform="translate(46.886760, 16.990722) rotate(89.500000) translate(-46.886760, -16.990722) " cx="46.8867596" cy="16.9907217" r="1.48163916"></circle>
                <circle id="Oval" transform="translate(31.938579, 17.110592) rotate(89.500000) translate(-31.938579, -17.110592) " cx="31.9385787" cy="17.1105923" r="1.48163916"></circle>
                <circle id="Oval" transform="translate(17.003543, 17.217086) rotate(89.500000) translate(-17.003543, -17.217086) " cx="17.0035433" cy="17.217086" r="1.48163916"></circle>
                <circle id="Oval" transform="translate(2.082116, 17.363248) rotate(89.500000) translate(-2.082116, -17.363248) " cx="2.08211637" cy="17.3632477" r="1.48163916"></circle>
                <circle id="Oval" transform="translate(106.479650, 1.518476) rotate(89.500000) translate(-106.479650, -1.518476) " cx="106.47965" cy="1.51847585" r="1.48163916"></circle>
                <circle id="Oval" transform="translate(91.544846, 1.651492) rotate(89.500000) translate(-91.544846, -1.651492) " cx="91.5448461" cy="1.65149201" r="1.48163916"></circle>
                <circle id="Oval" transform="translate(76.623351, 1.789885) rotate(89.500000) translate(-76.623351, -1.789885) " cx="76.6233513" cy="1.78988542" r="1.48163916"></circle>
                <circle id="Oval" transform="translate(61.675170, 1.909756) rotate(89.500000) translate(-61.675170, -1.909756) " cx="61.6751704" cy="1.90975607" r="1.48163916"></circle>
                <circle id="Oval" transform="translate(46.740366, 2.042772) rotate(89.500000) translate(-46.740366, -2.042772) " cx="46.7403665" cy="2.04277223" r="1.48163916"></circle>
                <circle id="Oval" transform="translate(31.805563, 2.175788) rotate(89.500000) translate(-31.805563, -2.175788) " cx="31.8055626" cy="2.17578839" r="1.48163916"></circle>
                <circle id="Oval" transform="translate(16.883904, 2.295428) rotate(89.500000) translate(-16.883904, -2.295428) " cx="16.8839041" cy="2.29542758" r="1.48163916"></circle>
                <circle id="Oval" transform="translate(1.949100, 2.428444) rotate(89.500000) translate(-1.949100, -2.428444) " cx="1.94910021" cy="2.42844374" r="1.48163916"></circle>
                <circle id="Oval-Copy-120" transform="translate(228.326436, 210.616852) rotate(89.500000) translate(-228.326436, -210.616852) " cx="228.326436" cy="210.616852" r="1.48163916"></circle>
                <circle id="Oval-Copy-119" transform="translate(213.372877, 210.750032) rotate(89.500000) translate(-213.372877, -210.750032) " cx="213.372877" cy="210.750032" r="1.48163916"></circle>
                <circle id="Oval-Copy-118" transform="translate(198.424697, 210.869903) rotate(89.500000) translate(-198.424697, -210.869903) " cx="198.424697" cy="210.869903" r="1.48163916"></circle>
                <circle id="Oval-Copy-117" transform="translate(183.503038, 210.989542) rotate(89.500000) translate(-183.503038, -210.989542) " cx="183.503038" cy="210.989542" r="1.48163916"></circle>
                <circle id="Oval-Copy-116" transform="translate(168.568234, 211.122558) rotate(89.500000) translate(-168.568234, -211.122558) " cx="168.568234" cy="211.122558" r="1.48163916"></circle>
                <circle id="Oval-Copy-115" transform="translate(153.633430, 211.255574) rotate(89.500000) translate(-153.633430, -211.255574) " cx="153.63343" cy="211.255574" r="1.48163916"></circle>
                <circle id="Oval-Copy-114" transform="translate(138.685249, 211.375445) rotate(89.500000) translate(-138.685249, -211.375445) " cx="138.685249" cy="211.375445" r="1.48163916"></circle>
                <circle id="Oval-Copy-113" transform="translate(123.776968, 211.508230) rotate(89.500000) translate(-123.776968, -211.508230) " cx="123.776968" cy="211.50823" r="1.48163916"></circle>
                <circle id="Oval-Copy-112" transform="translate(228.174502, 195.663458) rotate(89.500000) translate(-228.174502, -195.663458) " cx="228.174502" cy="195.663458" r="1.48163916"></circle>
                <circle id="Oval-Copy-111" transform="translate(213.239698, 195.796474) rotate(89.500000) translate(-213.239698, -195.796474) " cx="213.239698" cy="195.796474" r="1.48163916"></circle>
                <circle id="Oval-Copy-110" transform="translate(198.304826, 195.921722) rotate(89.500000) translate(-198.304826, -195.921722) " cx="198.304826" cy="195.921722" r="1.48163916"></circle>
                <circle id="Oval-Copy-109" transform="translate(183.370022, 196.054738) rotate(89.500000) translate(-183.370022, -196.054738) " cx="183.370022" cy="196.054738" r="1.48163916"></circle>
                <circle id="Oval-Copy-108" transform="translate(168.448595, 196.200900) rotate(89.500000) translate(-168.448595, -196.200900) " cx="168.448595" cy="196.2009" r="1.48163916"></circle>
                <circle id="Oval-Copy-107" transform="translate(153.500414, 196.320770) rotate(89.500000) translate(-153.500414, -196.320770) " cx="153.500414" cy="196.32077" r="1.48163916"></circle>
                <circle id="Oval-Copy-106" transform="translate(138.578756, 196.440410) rotate(89.500000) translate(-138.578756, -196.440410) " cx="138.578756" cy="196.44041" r="1.48163916"></circle>
                <circle id="Oval-Copy-105" transform="translate(123.643952, 196.573426) rotate(89.500000) translate(-123.643952, -196.573426) " cx="123.643952" cy="196.573426" r="1.48163916"></circle>
                <circle id="Oval-Copy-104" transform="translate(228.041485, 180.728654) rotate(89.500000) translate(-228.041485, -180.728654) " cx="228.041485" cy="180.728654" r="1.48163916"></circle>
                <circle id="Oval-Copy-103" transform="translate(213.106681, 180.861670) rotate(89.500000) translate(-213.106681, -180.861670) " cx="213.106681" cy="180.86167" r="1.48163916"></circle>
                <circle id="Oval-Copy-102" transform="translate(198.185187, 181.000064) rotate(89.500000) translate(-198.185187, -181.000064) " cx="198.185187" cy="181.000064" r="1.48163916"></circle>
                <circle id="Oval-Copy-101" transform="translate(183.250383, 181.133080) rotate(89.500000) translate(-183.250383, -181.133080) " cx="183.250383" cy="181.13308" r="1.48163916"></circle>
                <circle id="Oval-Copy-100" transform="translate(168.302202, 181.252950) rotate(89.500000) translate(-168.302202, -181.252950) " cx="168.302202" cy="181.25295" r="1.48163916"></circle>
                <circle id="Oval-Copy-99" transform="translate(153.367398, 181.385967) rotate(89.500000) translate(-153.367398, -181.385967) " cx="153.367398" cy="181.385967" r="1.48163916"></circle>
                <circle id="Oval-Copy-98" transform="translate(138.459116, 181.518751) rotate(89.500000) translate(-138.459116, -181.518751) " cx="138.459116" cy="181.518751" r="1.48163916"></circle>
                <circle id="Oval-Copy-97" transform="translate(123.510936, 181.638622) rotate(89.500000) translate(-123.510936, -181.638622) " cx="123.510936" cy="181.638622" r="1.48163916"></circle>
                <circle id="Oval-Copy-96" transform="translate(227.908469, 165.793850) rotate(89.500000) translate(-227.908469, -165.793850) " cx="227.908469" cy="165.79385" r="1.48163916"></circle>
                <circle id="Oval-Copy-95" transform="translate(212.973665, 165.926866) rotate(89.500000) translate(-212.973665, -165.926866) " cx="212.973665" cy="165.926866" r="1.48163916"></circle>
                <circle id="Oval-Copy-94" transform="translate(198.052007, 166.046505) rotate(89.500000) translate(-198.052007, -166.046505) " cx="198.052007" cy="166.046505" r="1.48163916"></circle>
                <circle id="Oval-Copy-93" transform="translate(183.117367, 166.198276) rotate(89.500000) translate(-183.117367, -166.198276) " cx="183.117367" cy="166.198276" r="1.48163916"></circle>
                <circle id="Oval-Copy-92" transform="translate(168.182563, 166.331292) rotate(89.500000) translate(-168.182563, -166.331292) " cx="168.182563" cy="166.331292" r="1.48163916"></circle>
                <circle id="Oval-Copy-91" transform="translate(153.247759, 166.464308) rotate(89.500000) translate(-153.247759, -166.464308) " cx="153.247759" cy="166.464308" r="1.48163916"></circle>
                <circle id="Oval-Copy-90" transform="translate(138.326100, 166.583947) rotate(89.500000) translate(-138.326100, -166.583947) " cx="138.3261" cy="166.583947" r="1.48163916"></circle>
                <circle id="Oval-Copy-89" transform="translate(123.391296, 166.716963) rotate(89.500000) translate(-123.391296, -166.716963) " cx="123.391296" cy="166.716963" r="1.48163916"></circle>
                <circle id="Oval-Copy-88" transform="translate(227.788830, 150.872192) rotate(89.500000) translate(-227.788830, -150.872192) " cx="227.78883" cy="150.872192" r="1.48163916"></circle>
                <circle id="Oval-Copy-87" transform="translate(212.867172, 150.991831) rotate(89.500000) translate(-212.867172, -150.991831) " cx="212.867172" cy="150.991831" r="1.48163916"></circle>
                <circle id="Oval-Copy-86" transform="translate(197.918991, 151.111701) rotate(89.500000) translate(-197.918991, -151.111701) " cx="197.918991" cy="151.111701" r="1.48163916"></circle>
                <circle id="Oval-Copy-85" transform="translate(182.984187, 151.244718) rotate(89.500000) translate(-182.984187, -151.244718) " cx="182.984187" cy="151.244718" r="1.48163916"></circle>
                <circle id="Oval-Copy-84" transform="translate(168.049547, 151.396488) rotate(89.500000) translate(-168.049547, -151.396488) " cx="168.049547" cy="151.396488" r="1.48163916"></circle>
                <circle id="Oval-Copy-83" transform="translate(153.114743, 151.529504) rotate(89.500000) translate(-153.114743, -151.529504) " cx="153.114743" cy="151.529504" r="1.48163916"></circle>
                <circle id="Oval-Copy-82" transform="translate(138.179707, 151.635998) rotate(89.500000) translate(-138.179707, -151.635998) " cx="138.179707" cy="151.635998" r="1.48163916"></circle>
                <circle id="Oval-Copy-81" transform="translate(123.258280, 151.782160) rotate(89.500000) translate(-123.258280, -151.782160) " cx="123.25828" cy="151.78216" r="1.48163916"></circle>
                <circle id="Oval-Copy-80" transform="translate(227.655814, 135.937388) rotate(89.500000) translate(-227.655814, -135.937388) " cx="227.655814" cy="135.937388" r="1.48163916"></circle>
                <circle id="Oval-Copy-79" transform="translate(212.734155, 136.057027) rotate(89.500000) translate(-212.734155, -136.057027) " cx="212.734155" cy="136.057027" r="1.48163916"></circle>
                <circle id="Oval-Copy-78" transform="translate(197.785975, 136.176898) rotate(89.500000) translate(-197.785975, -136.176898) " cx="197.785975" cy="136.176898" r="1.48163916"></circle>
                <circle id="Oval-Copy-77" transform="translate(182.851171, 136.309914) rotate(89.500000) translate(-182.851171, -136.309914) " cx="182.851171" cy="136.309914" r="1.48163916"></circle>
                <circle id="Oval-Copy-76" transform="translate(167.916367, 136.442930) rotate(89.500000) translate(-167.916367, -136.442930) " cx="167.916367" cy="136.44293" r="1.48163916"></circle>
                <circle id="Oval-Copy-75" transform="translate(152.994872, 136.581323) rotate(89.500000) translate(-152.994872, -136.581323) " cx="152.994872" cy="136.581323" r="1.48163916"></circle>
                <circle id="Oval-Copy-74" transform="translate(138.060068, 136.714339) rotate(89.500000) translate(-138.060068, -136.714339) " cx="138.060068" cy="136.714339" r="1.48163916"></circle>
                <circle id="Oval-Copy-73" transform="translate(123.125264, 136.847356) rotate(89.500000) translate(-123.125264, -136.847356) " cx="123.125264" cy="136.847356" r="1.48163916"></circle>
                <circle id="Oval-Copy-72" transform="translate(227.522798, 121.002584) rotate(89.500000) translate(-227.522798, -121.002584) " cx="227.522798" cy="121.002584" r="1.48163916"></circle>
                <circle id="Oval-Copy-71" transform="translate(212.587762, 121.109077) rotate(89.500000) translate(-212.587762, -121.109077) " cx="212.587762" cy="121.109077" r="1.48163916"></circle>
                <circle id="Oval-Copy-70" transform="translate(197.666335, 121.255239) rotate(89.500000) translate(-197.666335, -121.255239) " cx="197.666335" cy="121.255239" r="1.48163916"></circle>
                <circle id="Oval-Copy-69" transform="translate(182.731531, 121.388255) rotate(89.500000) translate(-182.731531, -121.388255) " cx="182.731531" cy="121.388255" r="1.48163916"></circle>
                <circle id="Oval-Copy-68" transform="translate(167.783351, 121.508126) rotate(89.500000) translate(-167.783351, -121.508126) " cx="167.783351" cy="121.508126" r="1.48163916"></circle>
                <circle id="Oval-Copy-67" transform="translate(152.861692, 121.627765) rotate(89.500000) translate(-152.861692, -121.627765) " cx="152.861692" cy="121.627765" r="1.48163916"></circle>
                <circle id="Oval-Copy-66" transform="translate(137.940429, 121.792681) rotate(89.500000) translate(-137.940429, -121.792681) " cx="137.940429" cy="121.792681" r="1.48163916"></circle>
                <circle id="Oval-Copy-65" transform="translate(122.992248, 121.912552) rotate(89.500000) translate(-122.992248, -121.912552) " cx="122.992248" cy="121.912552" r="1.48163916"></circle>
                <circle id="Oval-Copy-64" transform="translate(227.402927, 106.054403) rotate(89.500000) translate(-227.402927, -106.054403) " cx="227.402927" cy="106.054403" r="1.48163916"></circle>
                <circle id="Oval-Copy-63" transform="translate(212.468123, 106.187419) rotate(89.500000) translate(-212.468123, -106.187419) " cx="212.468123" cy="106.187419" r="1.48163916"></circle>
                <circle id="Oval-Copy-62" transform="translate(197.533319, 106.320435) rotate(89.500000) translate(-197.533319, -106.320435) " cx="197.533319" cy="106.320435" r="1.48163916"></circle>
                <circle id="Oval-Copy-61" transform="translate(182.598515, 106.453451) rotate(89.500000) translate(-182.598515, -106.453451) " cx="182.598515" cy="106.453451" r="1.48163916"></circle>
                <circle id="Oval-Copy-60" transform="translate(167.663711, 106.586468) rotate(89.500000) translate(-167.663711, -106.586468) " cx="167.663711" cy="106.586468" r="1.48163916"></circle>
                <circle id="Oval-Copy-59" transform="translate(152.742053, 106.706107) rotate(89.500000) translate(-152.742053, -106.706107) " cx="152.742053" cy="106.706107" r="1.48163916"></circle>
                <circle id="Oval-Copy-58" transform="translate(137.793872, 106.825977) rotate(89.500000) translate(-137.793872, -106.825977) " cx="137.793872" cy="106.825977" r="1.48163916"></circle>
                <circle id="Oval-Copy-57" transform="translate(122.840478, 106.977911) rotate(89.500000) translate(-122.840478, -106.977911) " cx="122.840478" cy="106.977911" r="1.48163916"></circle>
                <circle id="Oval-Copy-56" transform="translate(227.269911, 91.119599) rotate(89.500000) translate(-227.269911, -91.119599) " cx="227.269911" cy="91.119599" r="1.48163916"></circle>
                <circle id="Oval-Copy-55" transform="translate(212.335107, 91.252615) rotate(89.500000) translate(-212.335107, -91.252615) " cx="212.335107" cy="91.2526151" r="1.48163916"></circle>
                <circle id="Oval-Copy-54" transform="translate(197.400303, 91.385631) rotate(89.500000) translate(-197.400303, -91.385631) " cx="197.400303" cy="91.3856313" r="1.48163916"></circle>
                <circle id="Oval-Copy-53" transform="translate(182.465499, 91.518647) rotate(89.500000) translate(-182.465499, -91.518647) " cx="182.465499" cy="91.5186474" r="1.48163916"></circle>
                <circle id="Oval-Copy-52" transform="translate(167.543841, 91.638287) rotate(89.500000) translate(-167.543841, -91.638287) " cx="167.543841" cy="91.6382866" r="1.48163916"></circle>
                <circle id="Oval-Copy-51" transform="translate(152.609037, 91.771303) rotate(89.500000) translate(-152.609037, -91.771303) " cx="152.609037" cy="91.7713028" r="1.48163916"></circle>
                <circle id="Oval-Copy-50" transform="translate(137.642102, 91.891337) rotate(89.500000) translate(-137.642102, -91.891337) " cx="137.642102" cy="91.8913371" r="1.48163916"></circle>
                <circle id="Oval-Copy-49" transform="translate(122.720675, 92.037499) rotate(89.500000) translate(-122.720675, -92.037499) " cx="122.720675" cy="92.0374988" r="1.48163916"></circle>
                <circle id="Oval-Copy-48" transform="translate(227.136895, 76.184795) rotate(89.500000) translate(-227.136895, -76.184795) " cx="227.136895" cy="76.184795" r="1.48163916"></circle>
                <circle id="Oval-Copy-47" transform="translate(212.215468, 76.330957) rotate(89.500000) translate(-212.215468, -76.330957) " cx="212.215468" cy="76.3309567" r="1.48163916"></circle>
                <circle id="Oval-Copy-46" transform="translate(197.267287, 76.450827) rotate(89.500000) translate(-197.267287, -76.450827) " cx="197.267287" cy="76.4508274" r="1.48163916"></circle>
                <circle id="Oval-Copy-45" transform="translate(182.332483, 76.583844) rotate(89.500000) translate(-182.332483, -76.583844) " cx="182.332483" cy="76.5838435" r="1.48163916"></circle>
                <circle id="Oval-Copy-44" transform="translate(167.410825, 76.703483) rotate(89.500000) translate(-167.410825, -76.703483) " cx="167.410825" cy="76.7034827" r="1.48163916"></circle>
                <circle id="Oval-Copy-43" transform="translate(152.457266, 76.836663) rotate(89.500000) translate(-152.457266, -76.836663) " cx="152.457266" cy="76.8366625" r="1.48163916"></circle>
                <circle id="Oval-Copy-42" transform="translate(137.522462, 76.969679) rotate(89.500000) translate(-137.522462, -76.969679) " cx="137.522462" cy="76.9696787" r="1.48163916"></circle>
                <circle id="Oval-Copy-41" transform="translate(122.587659, 77.102695) rotate(89.500000) translate(-122.587659, -77.102695) " cx="122.587659" cy="77.1026948" r="1.48163916"></circle>
                <circle id="Oval-Copy-40" transform="translate(227.003879, 61.249991) rotate(89.500000) translate(-227.003879, -61.249991) " cx="227.003879" cy="61.2499911" r="1.48163916"></circle>
                <circle id="Oval-Copy-39" transform="translate(212.069075, 61.383007) rotate(89.500000) translate(-212.069075, -61.383007) " cx="212.069075" cy="61.3830073" r="1.48163916"></circle>
                <circle id="Oval-Copy-38" transform="translate(197.147648, 61.529169) rotate(89.500000) translate(-197.147648, -61.529169) " cx="197.147648" cy="61.5291689" r="1.48163916"></circle>
                <circle id="Oval-Copy-37" transform="translate(182.199467, 61.649040) rotate(89.500000) translate(-182.199467, -61.649040) " cx="182.199467" cy="61.6490396" r="1.48163916"></circle>
                <circle id="Oval-Copy-36" transform="translate(167.259054, 61.768842) rotate(89.500000) translate(-167.259054, -61.768842) " cx="167.259054" cy="61.7688424" r="1.48163916"></circle>
                <circle id="Oval-Copy-35" transform="translate(152.337627, 61.915004) rotate(89.500000) translate(-152.337627, -61.915004) " cx="152.337627" cy="61.9150041" r="1.48163916"></circle>
                <circle id="Oval-Copy-34" transform="translate(137.402823, 62.048020) rotate(89.500000) translate(-137.402823, -62.048020) " cx="137.402823" cy="62.0480203" r="1.48163916"></circle>
                <circle id="Oval-Copy-33" transform="translate(122.454642, 62.167891) rotate(89.500000) translate(-122.454642, -62.167891) " cx="122.454642" cy="62.1678909" r="1.48163916"></circle>
                <circle id="Oval-Copy-32" transform="translate(226.884239, 46.328333) rotate(89.500000) translate(-226.884239, -46.328333) " cx="226.884239" cy="46.3283327" r="1.48163916"></circle>
                <circle id="Oval-Copy-31" transform="translate(211.949435, 46.461349) rotate(89.500000) translate(-211.949435, -46.461349) " cx="211.949435" cy="46.4613488" r="1.48163916"></circle>
                <circle id="Oval-Copy-30" transform="translate(197.001255, 46.581219) rotate(89.500000) translate(-197.001255, -46.581219) " cx="197.001255" cy="46.5812195" r="1.48163916"></circle>
                <circle id="Oval-Copy-29" transform="translate(182.074219, 46.714168) rotate(89.500000) translate(-182.074219, -46.714168) " cx="182.074219" cy="46.7141679" r="1.48163916"></circle>
                <circle id="Oval-Copy-28" transform="translate(167.139415, 46.847184) rotate(89.500000) translate(-167.139415, -46.847184) " cx="167.139415" cy="46.847184" r="1.48163916"></circle>
                <circle id="Oval-Copy-27" transform="translate(152.204611, 46.980200) rotate(89.500000) translate(-152.204611, -46.980200) " cx="152.204611" cy="46.9802002" r="1.48163916"></circle>
                <circle id="Oval-Copy-26" transform="translate(137.256430, 47.100071) rotate(89.500000) translate(-137.256430, -47.100071) " cx="137.25643" cy="47.1000708" r="1.48163916"></circle>
                <circle id="Oval-Copy-25" transform="translate(122.321626, 47.233087) rotate(89.500000) translate(-122.321626, -47.233087) " cx="122.321626" cy="47.233087" r="1.48163916"></circle>
                <circle id="Oval-Copy-24" transform="translate(226.751223, 31.393529) rotate(89.500000) translate(-226.751223, -31.393529) " cx="226.751223" cy="31.3935288" r="1.48163916"></circle>
                <circle id="Oval-Copy-23" transform="translate(211.816419, 31.526545) rotate(89.500000) translate(-211.816419, -31.526545) " cx="211.816419" cy="31.5265449" r="1.48163916"></circle>
                <circle id="Oval-Copy-22" transform="translate(196.862861, 31.659725) rotate(89.500000) translate(-196.862861, -31.659725) " cx="196.862861" cy="31.6597247" r="1.48163916"></circle>
                <circle id="Oval-Copy-21" transform="translate(181.941203, 31.779364) rotate(89.500000) translate(-181.941203, -31.779364) " cx="181.941203" cy="31.7793639" r="1.48163916"></circle>
                <circle id="Oval-Copy-20" transform="translate(167.006399, 31.912380) rotate(89.500000) translate(-167.006399, -31.912380) " cx="167.006399" cy="31.9123801" r="1.48163916"></circle>
                <circle id="Oval-Copy-19" transform="translate(152.071595, 32.045396) rotate(89.500000) translate(-152.071595, -32.045396) " cx="152.071595" cy="32.0453962" r="1.48163916"></circle>
                <circle id="Oval-Copy-18" transform="translate(137.136559, 32.151890) rotate(89.500000) translate(-137.136559, -32.151890) " cx="137.136559" cy="32.1518899" r="1.48163916"></circle>
                <circle id="Oval-Copy-17" transform="translate(122.215133, 32.298052) rotate(89.500000) translate(-122.215133, -32.298052) " cx="122.215133" cy="32.2980516" r="1.48163916"></circle>
                <circle id="Oval-Copy-16" transform="translate(226.631420, 16.453116) rotate(89.500000) translate(-226.631420, -16.453116) " cx="226.63142" cy="16.4531161" r="1.48163916"></circle>
                <circle id="Oval-Copy-15" transform="translate(211.678026, 16.605050) rotate(89.500000) translate(-211.678026, -16.605050) " cx="211.678026" cy="16.6050501" r="1.48163916"></circle>
                <circle id="Oval-Copy-14" transform="translate(196.742991, 16.711544) rotate(89.500000) translate(-196.742991, -16.711544) " cx="196.742991" cy="16.7115438" r="1.48163916"></circle>
                <circle id="Oval-Copy-13" transform="translate(181.808187, 16.844560) rotate(89.500000) translate(-181.808187, -16.844560) " cx="181.808187" cy="16.84456" r="1.48163916"></circle>
                <circle id="Oval-Copy-12" transform="translate(166.886760, 16.990722) rotate(89.500000) translate(-166.886760, -16.990722) " cx="166.88676" cy="16.9907217" r="1.48163916"></circle>
                <circle id="Oval-Copy-11" transform="translate(151.938579, 17.110592) rotate(89.500000) translate(-151.938579, -17.110592) " cx="151.938579" cy="17.1105923" r="1.48163916"></circle>
                <circle id="Oval-Copy-10" transform="translate(137.003543, 17.217086) rotate(89.500000) translate(-137.003543, -17.217086) " cx="137.003543" cy="17.217086" r="1.48163916"></circle>
                <circle id="Oval-Copy-9" transform="translate(122.082116, 17.363248) rotate(89.500000) translate(-122.082116, -17.363248) " cx="122.082116" cy="17.3632477" r="1.48163916"></circle>
                <circle id="Oval-Copy-8" transform="translate(226.479650, 1.518476) rotate(89.500000) translate(-226.479650, -1.518476) " cx="226.47965" cy="1.51847585" r="1.48163916"></circle>
                <circle id="Oval-Copy-7" transform="translate(211.544846, 1.651492) rotate(89.500000) translate(-211.544846, -1.651492) " cx="211.544846" cy="1.65149201" r="1.48163916"></circle>
                <circle id="Oval-Copy-6" transform="translate(196.623351, 1.789885) rotate(89.500000) translate(-196.623351, -1.789885) " cx="196.623351" cy="1.78988542" r="1.48163916"></circle>
                <circle id="Oval-Copy-5" transform="translate(181.675170, 1.909756) rotate(89.500000) translate(-181.675170, -1.909756) " cx="181.67517" cy="1.90975607" r="1.48163916"></circle>
                <circle id="Oval-Copy-4" transform="translate(166.740366, 2.042772) rotate(89.500000) translate(-166.740366, -2.042772) " cx="166.740366" cy="2.04277223" r="1.48163916"></circle>
                <circle id="Oval-Copy-3" transform="translate(151.805563, 2.175788) rotate(89.500000) translate(-151.805563, -2.175788) " cx="151.805563" cy="2.17578839" r="1.48163916"></circle>
                <circle id="Oval-Copy-2" transform="translate(136.883904, 2.295428) rotate(89.500000) translate(-136.883904, -2.295428) " cx="136.883904" cy="2.29542758" r="1.48163916"></circle>
                <circle id="Oval-Copy" transform="translate(121.949100, 2.428444) rotate(89.500000) translate(-121.949100, -2.428444) " cx="121.9491" cy="2.42844374" r="1.48163916"></circle>
            </g>
        </g>
    </g>
</svg>