<?xml version="1.0" encoding="UTF-8"?>
<svg width="164px" height="594px" viewBox="0 0 164 594" version="1.1" xmlns="http://www.w3.org/2000/svg" xmlns:xlink="http://www.w3.org/1999/xlink">
    <!-- Generator: Sketch 55.2 (78181) - https://sketchapp.com -->
    <title>DigiPli</title>
    <desc>Created with Sketch.</desc>
    <g id="Page-1" stroke="none" stroke-width="1" fill="none" fill-rule="evenodd" opacity="0.1">
        <g id="Newer-Home-Page-Copy" transform="translate(-1756.000000, -560.000000)" fill="#969696" fill-rule="nonzero">
            <path d="M1583.43359,789.054688 L1583.43359,883 L1611.16797,883 C1625.36075,883 1635.25648,876.001372 1640.85547,862.003906 C1643.91538,854.321576 1645.44531,845.174532 1645.44531,834.5625 C1645.44531,819.913989 1643.15041,808.667357 1638.56055,800.822266 C1633.97068,792.977174 1624.83991,789.054688 1611.16797,789.054688 L1583.43359,789.054688 Z M1616.24609,764.054688 C1625.16541,764.184896 1632.58721,765.226553 1638.51172,767.179688 C1648.60292,770.500017 1656.77341,776.587195 1663.02344,785.441406 C1668.03648,792.6029 1671.45442,800.350219 1673.27734,808.683594 C1675.10027,817.016969 1676.01172,824.959598 1676.01172,832.511719 C1676.01172,851.652439 1672.17061,867.863215 1664.48828,881.144531 C1654.07156,899.048267 1637.99099,908 1616.24609,908 L1554.23438,908 L1554.23438,764.054688 L1616.24609,764.054688 Z M1725.03516,788.859375 L1696.8125,788.859375 L1696.8125,763.175781 L1725.03516,763.175781 L1725.03516,788.859375 Z M1696.8125,801.554688 L1725.03516,801.554688 L1725.03516,908 L1696.8125,908 L1696.8125,801.554688 Z M1797.69141,885.148438 C1804.20186,885.148438 1809.7031,882.69078 1814.19531,877.775391 C1818.68752,872.860001 1820.93359,865.031304 1820.93359,854.289062 C1820.93359,844.197866 1818.80145,836.515651 1814.53711,831.242188 C1810.27277,825.968724 1804.55993,823.332031 1797.39844,823.332031 C1787.63276,823.332031 1780.89455,827.921829 1777.18359,837.101562 C1775.23046,841.984399 1774.25391,848.006475 1774.25391,855.167969 C1774.25391,861.352896 1775.29556,866.854143 1777.37891,871.671875 C1781.15497,880.656295 1787.92573,885.148438 1797.69141,885.148438 Z M1790.75781,799.015625 C1796.09638,799.015625 1800.75128,799.829419 1804.72266,801.457031 C1811.49352,804.256524 1816.96222,809.399702 1821.12891,816.886719 L1821.12891,801.554688 L1848.17969,801.554688 L1848.17969,902.53125 C1848.17969,916.268298 1845.86851,926.619757 1841.24609,933.585938 C1833.30335,945.565164 1818.06912,951.554688 1795.54297,951.554688 C1781.93613,951.554688 1770.83598,948.885443 1762.24219,943.546875 C1753.64839,938.208307 1748.89584,930.233126 1747.98438,919.621094 L1778.25781,919.621094 C1779.03907,922.876318 1780.30858,925.220045 1782.06641,926.652344 C1785.06121,929.191419 1790.10674,930.460938 1797.20312,930.460938 C1807.22922,930.460938 1813.93488,927.108106 1817.32031,920.402344 C1819.53387,916.105447 1820.64062,908.878957 1820.64062,898.722656 L1820.64062,891.886719 C1817.97134,896.444033 1815.10679,899.861968 1812.04688,902.140625 C1806.51299,906.372417 1799.31905,908.488281 1790.46484,908.488281 C1776.7929,908.488281 1765.87179,903.686897 1757.70117,894.083984 C1749.53056,884.481072 1745.44531,871.476645 1745.44531,855.070312 C1745.44531,839.249921 1749.38408,825.952528 1757.26172,815.177734 C1765.13936,804.402941 1776.30462,799.015625 1790.75781,799.015625 Z M1902.76953,788.859375 L1874.54688,788.859375 L1874.54688,763.175781 L1902.76953,763.175781 L1902.76953,788.859375 Z M1874.54688,801.554688 L1902.76953,801.554688 L1902.76953,908 L1874.54688,908 L1874.54688,801.554688 Z M2013.02344,809.855469 C2013.02344,802.368452 2011.05406,797.029964 2007.11523,793.839844 C2003.17641,790.649724 1997.65889,789.054688 1990.5625,789.054688 L1962.53516,789.054688 L1962.53516,831.4375 L1990.5625,831.4375 C1997.65889,831.4375 2003.17641,829.712257 2007.11523,826.261719 C2011.05406,822.811181 2013.02344,817.342485 2013.02344,809.855469 Z M2042.80859,809.660156 C2042.80859,826.652429 2038.51176,838.664027 2029.91797,845.695312 C2021.32418,852.726598 2009.05216,856.242188 1993.10156,856.242188 L1962.53516,856.242188 L1962.53516,908 L1932.65234,908 L1932.65234,764.054688 L1995.34766,764.054688 C2009.80085,764.054688 2021.32418,767.765588 2029.91797,775.1875 C2038.51176,782.609412 2042.80859,794.100183 2042.80859,809.660156 Z M2091.53906,908 L2063.70703,908 L2063.70703,764.054688 L2091.53906,764.054688 L2091.53906,908 Z M2147.30078,788.859375 L2119.07812,788.859375 L2119.07812,763.175781 L2147.30078,763.175781 L2147.30078,788.859375 Z M2119.07812,801.554688 L2147.30078,801.554688 L2147.30078,908 L2119.07812,908 L2119.07812,801.554688 Z" id="DigiPli" transform="translate(1850.767578, 857.365234) rotate(90.000000) translate(-1850.767578, -857.365234) "></path>
        </g>
    </g>
</svg>