<?xml version="1.0" encoding="UTF-8"?>
<svg width="16px" height="14px" viewBox="0 0 16 14" version="1.1" xmlns="http://www.w3.org/2000/svg" xmlns:xlink="http://www.w3.org/1999/xlink">
    <!-- Generator: Sketch 55.2 (78181) - https://sketchapp.com -->
    <title>twitter</title>
    <desc>Created with Sketch.</desc>
    <g id="Page-1" stroke="none" stroke-width="1" fill="none" fill-rule="evenodd">
        <g id="Insights-Detail-Page" transform="translate(-504.000000, -723.000000)" fill="#FFFFFF" fill-rule="nonzero">
            <g id="Group-18" transform="translate(255.000000, 716.000000)">
                <g id="Group-17" transform="translate(113.000000, 2.000000)">
                    <g id="Group-15" transform="translate(132.000000, 0.000000)">
                        <g id="twitter" transform="translate(4.000000, 5.000000)">
                            <path d="M15.7131679,1.56418491 C15.3584039,1.72149878 14.9901314,1.84560584 14.6122433,1.93545499 C15.0286326,1.53977616 15.3417032,1.04486618 15.518326,0.492457421 L15.518326,0.492457421 C15.5687397,0.334754258 15.3974501,0.198384428 15.2550462,0.282822384 L15.2550462,0.282822384 C14.7293431,0.594647202 14.1630754,0.828574209 13.5719319,0.978180049 C13.537635,0.986861314 13.5022482,0.991260341 13.4667445,0.991260341 C13.3590657,0.991260341 13.2543844,0.951279805 13.1720487,0.878715328 C12.5431046,0.324399027 11.7341898,0.0191143552 10.894365,0.0191143552 C10.5309586,0.0191143552 10.1640487,0.075756691 9.80379562,0.187484185 C8.68761071,0.533683698 7.8263747,1.45440389 7.55616545,2.59036496 C7.45479319,3.01644769 7.42734793,3.44291971 7.47453041,3.85790754 C7.47994161,3.90559611 7.45740146,3.93888078 7.44350365,3.95449148 C7.41909489,3.98185888 7.38448662,3.99754745 7.34855474,3.99754745 C7.34454501,3.99754745 7.34041849,3.9973528 7.3363309,3.9969635 C4.89304136,3.76996594 2.68979075,2.59285645 1.13241849,0.682510949 L1.13241849,0.682510949 C1.05300243,0.58507056 0.900710462,0.597021898 0.837411192,0.705596107 L0.837411192,0.705596107 C0.532437956,1.22880779 0.371270073,1.82723114 0.371270073,2.43616545 C0.371270073,3.369382 0.746199513,4.24883698 1.39745012,4.88996594 C1.12358151,4.82503163 0.858510949,4.72276399 0.612282238,4.58600487 L0.612282238,4.58600487 C0.493158151,4.51982482 0.346588808,4.60488564 0.344914842,4.74113869 L0.344914842,4.74113869 C0.327863747,6.12749392 1.13954258,7.36109002 2.35546472,7.91657421 C2.3309781,7.91715815 2.30649148,7.91743066 2.28196594,7.91743066 C2.08922628,7.91743066 1.89407299,7.89882238 1.70199513,7.86211192 L1.70199513,7.86211192 C1.56784428,7.83649635 1.45514355,7.96375669 1.49679805,8.09381995 L1.49679805,8.09381995 C1.89146472,9.32597567 2.95236983,10.2341995 4.22193674,10.4404088 C3.16827251,11.1477178 1.94125547,11.5208175 0.664175182,11.5208175 L0.266043796,11.5205839 C0.143377129,11.5205839 0.0396301703,11.600545 0.00836982968,11.7193577 C-0.0224233577,11.8363796 0.034296837,11.9598248 0.138900243,12.0206715 C1.57796594,12.8581606 3.21942579,13.3007883 4.88654015,13.3007883 C6.34581022,13.3007883 7.71083212,13.0111922 8.94372749,12.4400973 C10.0739659,11.9165353 11.0727397,11.1681168 11.912292,10.2156302 C12.6943844,9.32835036 13.3059659,8.30407786 13.7299854,7.171309 C14.1341898,6.09152311 14.3478345,4.9393674 14.3478345,3.83937713 L14.3478345,3.7869781 C14.3477956,3.61035523 14.4276788,3.44416545 14.5670462,3.3310365 C15.0959027,2.90164477 15.556438,2.39618491 15.9358054,1.82871046 L15.9358054,1.82871046 C16.0359708,1.67887105 15.8779951,1.49107543 15.7131679,1.56418491 L15.7131679,1.56418491 Z" id="Path"></path>
                        </g>
                    </g>
                </g>
            </g>
        </g>
    </g>
</svg>