<?xml version="1.0" encoding="UTF-8"?>
<svg width="16px" height="17px" viewBox="0 0 16 17" version="1.1" xmlns="http://www.w3.org/2000/svg" xmlns:xlink="http://www.w3.org/1999/xlink">
    <!-- Generator: Sketch 55.2 (78181) - https://sketchapp.com -->
    <title>whatsapp</title>
    <desc>Created with Sketch.</desc>
    <g id="Page-1" stroke="none" stroke-width="1" fill="none" fill-rule="evenodd">
        <g id="Insights-Detail-Page" transform="translate(-548.000000, -722.000000)" fill="#FFFFFF" fill-rule="nonzero">
            <g id="Group-18" transform="translate(255.000000, 716.000000)">
                <g id="Group-17" transform="translate(113.000000, 2.000000)">
                    <g id="Group-16" transform="translate(176.000000, 0.000000)">
                        <g id="whatsapp" transform="translate(4.000000, 4.000000)">
                            <path d="M7.61265385,0.00930769231 C3.36538462,0.211538462 0.0136923077,3.74869231 0.0265398996,8.00076923 C0.0305,9.29584615 0.343153846,10.5182308 0.894692308,11.5983077 L0.0478846154,15.7088077 C0.00207692308,15.9311538 0.202615385,16.1258462 0.4235,16.0735385 L4.45130769,15.1192692 C5.48611538,15.6347308 6.64842308,15.9324615 7.87853846,15.9512308 C12.2196538,16.0175385 15.8393846,12.5705769 15.9746923,8.23107692 C16.1197308,3.57942308 12.2805769,-0.213 7.61265385,0.00930769231 Z M12.4186923,12.3921923 C11.2391154,13.5717692 9.67076923,14.2213846 8.00261538,14.2213846 C7.02584615,14.2213846 6.09069231,14.0022308 5.22303846,13.5700385 L4.66211538,13.2906154 L2.19265385,13.8756923 L2.71246154,11.3523462 L2.43611538,10.8111923 C1.98569231,9.92907692 1.75730769,8.97519231 1.75730769,7.97607692 C1.75730769,6.30788462 2.40692308,4.73957692 3.5865,3.55996154 C4.75553846,2.39092308 6.34946154,1.73073077 8.00273077,1.73073077 C9.67088462,1.73073077 11.2391538,2.38038462 12.4187308,3.55992308 C13.5983077,4.7395 14.2479615,6.30780769 14.2479615,7.97596154 C14.2479615,9.62926923 13.5877308,11.2231923 12.4186923,12.3921923 Z" id="Shape"></path>
                            <path d="M11.8735385,9.70580769 L10.3285769,9.26219231 C10.1254615,9.20388462 9.90673077,9.2615 9.75873077,9.41230769 L9.38092308,9.79723077 C9.22161538,9.95953846 8.97988462,10.0116923 8.76903846,9.92638462 C8.03819231,9.63061538 6.50080769,8.26369231 6.10819231,7.57996154 C5.99492308,7.38273077 6.01365385,7.13615385 6.15273077,6.95619231 L6.48257692,6.52946154 C6.61180769,6.36226923 6.63907692,6.13773077 6.55361538,5.94446154 L5.90361538,4.47434615 C5.74792308,4.12223077 5.29796154,4.01973077 5.004,4.26834615 C4.57280769,4.63303846 4.06119231,5.18723077 3.999,5.80119231 C3.88934615,6.88365385 4.35357692,8.24819231 6.10907692,9.88665385 C8.13715385,11.7795385 9.76123077,12.0296154 10.8186538,11.7734615 C11.4184231,11.6281923 11.8977308,11.0458077 12.2002308,10.5689615 C12.4064615,10.2438462 12.2436154,9.81207692 11.8735385,9.70580769 Z" id="Path"></path>
                        </g>
                    </g>
                </g>
            </g>
        </g>
    </g>
</svg>