<?xml version="1.0" encoding="UTF-8"?>
<svg width="20px" height="20px" viewBox="0 0 20 20" version="1.1" xmlns="http://www.w3.org/2000/svg" xmlns:xlink="http://www.w3.org/1999/xlink">
    <!-- Generator: Sketch 55.2 (78181) - https://sketchapp.com -->
    <title>Combined Shape</title>
    <desc>Created with Sketch.</desc>
    <g id="Page-1" stroke="none" stroke-width="1" fill="none" fill-rule="evenodd">
        <g id="About-Page-mobile" transform="translate(-35.000000, -3810.000000)" fill="#E7E7E7">
            <g id="Group-6" transform="translate(35.000000, 3809.000000)">
                <path d="M1,1 L19,1 C19.5522847,1 20,1.44771525 20,2 L20,20 C20,20.5522847 19.5522847,21 19,21 L1,21 C0.44771525,21 6.76353751e-17,20.5522847 0,20 L0,2 C-6.76353751e-17,1.44771525 0.44771525,1 1,1 Z M5,5 C4.44771525,5 4,5.44771525 4,6 L4,16 C4,16.5522847 4.44771525,17 5,17 L15,17 C15.5522847,17 16,16.5522847 16,16 L16,6 C16,5.44771525 15.5522847,5 15,5 L5,5 Z" id="Combined-Shape"></path>
            </g>
        </g>
    </g>
</svg>