<?xml version="1.0" encoding="UTF-8"?>
<svg width="189px" height="578px" viewBox="0 0 189 578" version="1.1" xmlns="http://www.w3.org/2000/svg" xmlns:xlink="http://www.w3.org/1999/xlink">
    <!-- Generator: Sketch 55.2 (78181) - https://sketchapp.com -->
    <title>DigiPli</title>
    <desc>Created with Sketch.</desc>
    <g id="Page-1" stroke="none" stroke-width="1" fill="none" fill-rule="evenodd" opacity="0.1">
        <g id="Solutions" transform="translate(-1682.000000, -104.000000)" fill="#969696" fill-rule="nonzero">
            <path d="M1515.8,420.4 L1537.8,420.4 C1561,420.4 1580.4,406 1580.4,375.2 C1580.4,344.4 1561.2,329.8 1538,329.8 L1515.8,329.8 L1515.8,420.4 Z M1538.8,446 L1488.2,446 L1488.2,304.2 L1539,304.2 C1579.4,304.2 1609,330.4 1609,375.2 C1609,420 1579.2,446 1538.8,446 Z M1657.6,446 L1631,446 L1631,347.6 L1657.6,347.6 L1657.6,446 Z M1627.8,315.4 C1627.8,306.2 1635.2,298.8 1644.2,298.8 C1653.4,298.8 1660.6,306.2 1660.6,315.4 C1660.6,324.2 1653.4,331.6 1644.2,331.6 C1635.2,331.6 1627.8,324.2 1627.8,315.4 Z M1679,451.4 L1703,445 C1704.8,455.8 1713.4,463.6 1726,463.6 C1742.8,463.6 1752.2,455.2 1752.2,436.2 L1752.2,429 C1748.2,435.4 1739,441.6 1724.8,441.6 C1698.6,441.6 1679,421.4 1679,393.8 C1679,367.8 1697.8,345.8 1724.8,345.8 C1740.4,345.8 1749.4,352.6 1752.8,359.2 L1752.8,347.6 L1778.4,347.6 L1778.4,435.4 C1778.4,462.4 1763.8,487 1726.8,487 C1699.8,487 1681.8,470.2 1679,451.4 Z M1729.4,418.8 C1743,418.8 1752.6,409 1752.6,393.8 C1752.6,378.6 1742.2,369 1729.4,369 C1716.2,369 1705.8,378.6 1705.8,393.8 C1705.8,409.2 1715.6,418.8 1729.4,418.8 Z M1832,446 L1805.4,446 L1805.4,347.6 L1832,347.6 L1832,446 Z M1802.2,315.4 C1802.2,306.2 1809.6,298.8 1818.6,298.8 C1827.8,298.8 1835,306.2 1835,315.4 C1835,324.2 1827.8,331.6 1818.6,331.6 C1809.6,331.6 1802.2,324.2 1802.2,315.4 Z M1890.2,368.8 L1912,368.8 C1925.8,368.8 1934.2,360.8 1934.2,348.6 C1934.2,336 1925.8,328.2 1912,328.2 L1890.2,328.2 L1890.2,368.8 Z M1915.4,392.6 L1890,392.6 L1890,446 L1862.4,446 L1862.4,304.2 L1915.4,304.2 C1943.4,304.2 1962,322.8 1962,348.4 C1962,374.2 1943.4,392.6 1915.4,392.6 Z M2006.8,446 L1980.2,446 L1980.2,301.2 L2006.8,301.2 L2006.8,446 Z M2061.8,446 L2035.2,446 L2035.2,347.6 L2061.8,347.6 L2061.8,446 Z M2032,315.4 C2032,306.2 2039.4,298.8 2048.4,298.8 C2057.6,298.8 2064.8,306.2 2064.8,315.4 C2064.8,324.2 2057.6,331.6 2048.4,331.6 C2039.4,331.6 2032,324.2 2032,315.4 Z" id="DigiPli" transform="translate(1776.500000, 392.900000) rotate(90.000000) translate(-1776.500000, -392.900000) "></path>
        </g>
    </g>
</svg>