<?xml version="1.0" encoding="UTF-8"?>
<svg width="16px" height="16px" viewBox="0 0 16 16" version="1.1" xmlns="http://www.w3.org/2000/svg" xmlns:xlink="http://www.w3.org/1999/xlink">
    <!-- Generator: Sketch 55.2 (78181) - https://sketchapp.com -->
    <title>facebook</title>
    <desc>Created with Sketch.</desc>
    <g id="Page-1" stroke="none" stroke-width="1" fill="none" fill-rule="evenodd">
        <g id="Insights-Detail-Page" transform="translate(-372.000000, -722.000000)" fill="#FFFFFF" fill-rule="nonzero">
            <g id="Group-18" transform="translate(255.000000, 716.000000)">
                <g id="Group-17" transform="translate(113.000000, 2.000000)">
                    <g id="Group-12">
                        <g id="facebook" transform="translate(4.800000, 4.800000)">
                            <path d="M13.1517174,0 L2.04824541,0 C0.917053219,0 0,0.917009306 0,2.04823038 L0,13.1516953 C0,14.2829163 0.917016035,15.2 2.04824541,15.2 L7.52442482,15.2 L7.53375784,9.76829457 L6.12261213,9.76829457 C5.9392238,9.76829457 5.79037881,9.62000842 5.78967232,9.43662143 L5.78290495,7.68578138 C5.78219847,7.50139045 5.93148966,7.35154261 6.11588194,7.35154261 L7.524462,7.35154261 L7.524462,5.65978649 C7.524462,3.69651947 8.72351383,2.6275057 10.4748873,2.6275057 L11.9120242,2.6275057 C12.0958959,2.6275057 12.2450012,2.7765727 12.2450012,2.96048025 L12.2450012,4.43679756 C12.2450012,4.62063074 12.0960074,4.76966056 11.9122101,4.76977211 L11.030258,4.77018112 C10.0778062,4.77018112 9.89337671,5.22277366 9.89337671,5.88697516 L9.89337671,7.35157979 L11.9862422,7.35157979 C12.1856565,7.35157979 12.3403765,7.52570819 12.3168766,7.72374532 L12.1093563,9.47458536 C12.0895003,9.64213235 11.9474227,9.76836893 11.7787218,9.76836893 L9.90270974,9.76836893 L9.89337671,15.2 L13.1517918,15.2 C14.282984,15.2 15.2,14.2829907 15.2,13.1518068 L15.2,2.04823038 C15.2,0.917009306 14.2829468,0 13.1517174,0 Z" id="Path"></path>
                        </g>
                    </g>
                </g>
            </g>
        </g>
    </g>
</svg>