<?xml version="1.0" encoding="UTF-8"?>
<svg width="25px" height="38px" viewBox="0 0 25 38" version="1.1" xmlns="http://www.w3.org/2000/svg" xmlns:xlink="http://www.w3.org/1999/xlink">
    <!-- Generator: Sketch 55.2 (78181) - https://sketchapp.com -->
    <title>mouse</title>
    <desc>Created with Sketch.</desc>
    <g id="Page-1" stroke="none" stroke-width="1" fill="none" fill-rule="evenodd">
        <g id="Newer-Home-Page-Copy" transform="translate(-948.000000, -711.000000)" fill="#1800B9" fill-rule="nonzero">
            <g id="Group-5" transform="translate(923.000000, 711.000000)">
                <g id="mouse" transform="translate(25.000000, 0.000000)">
                    <path d="M12.4480496,0 C5.59078014,0 0.0122340426,5.57624113 0.0122340426,12.4297872 L0.0122340426,24.8783688 C0.0122340426,31.7317376 5.59078014,37.3074468 12.4480496,37.3074468 C19.3053191,37.3074468 24.8838652,31.7319149 24.8838652,24.8783688 L24.8838652,12.4297872 C24.8838652,5.57624113 19.3051418,0 12.4480496,0 Z M23.5021277,24.8783688 C23.5021277,30.9700355 18.5432624,35.9257092 12.4480496,35.9257092 C6.35283688,35.9257092 1.39397163,30.9700355 1.39397163,24.8783688 L1.39397163,12.4297872 C1.39397163,6.33812057 6.35283688,1.38173759 12.4480496,1.38173759 C18.5432624,1.38173759 23.5021277,6.33794326 23.5021277,12.4297872 L23.5021277,24.8783688 Z" id="Shape"></path>
                    <path d="M12.4480496,4.14521277 C12.0664894,4.14521277 11.7570922,4.45425532 11.7570922,4.83617021 L11.7570922,11.0925532 C11.7570922,11.4744681 12.0664894,11.7835106 12.4480496,11.7835106 C12.8296099,11.7835106 13.1390071,11.4744681 13.1390071,11.0925532 L13.1390071,4.83617021 C13.1388298,4.45425532 12.8296099,4.14521277 12.4480496,4.14521277 Z" id="Shape"></path>
                </g>
            </g>
        </g>
    </g>
</svg>